Release info:

General
Format                                   : Matroska
Format version                           : Version 4 / Version 2
File size                                : 320 MiB
Duration                                 : 35mn 8s
Overall bit rate                         : 1 271 Kbps
Movie name                               : Madly Madagascar 2012 DVDRip English

Video
ID                                       : 1
Format                                   : MPEG-4 Visual
Format profile                           : Advanced Simple@L5
Format settings, BVOP                    : Yes
Format settings, QPel                    : No
Format settings, GMC                     : No warppoints
Format settings, Matrix                  : Default (H.263)
Codec ID                                 : V_MS/VFW/FOURCC / XVID
Codec ID/Hint                            : XviD
Duration                                 : 35mn 8s
Bit rate                                 : 1 118 Kbps
Width                                    : 720 pixels
Height                                   : 384 pixels
Display aspect ratio                     : 1.85:1
Frame rate mode                          : Constant
Frame rate                               : 23.976 fps
Color space                              : YUV
Chroma subsampling                       : 4:2:0
Bit depth                                : 8 bits
Scan type                                : Progressive
Compression mode                         : Lossy
Bits/(Pixel*Frame)                       : 0.169
Stream size                              : 281 MiB (88%)
Title                                    : Madly Madagascar 2012 DVDRip English
Writing library                          : XviD 64
Language                                 : English
Default                                  : Yes
Forced                                   : No

Audio
ID                                       : 2
Format                                   : MPEG Audio
Format version                           : Version 1
Format profile                           : Layer 3
Mode                                     : Joint stereo
Mode extension                           : MS Stereo
Codec ID                                 : A_MPEG/L3
Codec ID/Hint                            : MP3
Duration                                 : 22mn 7s
Bit rate mode                            : Constant
Bit rate                                 : 128 Kbps
Channel(s)                               : 2 channels
Sampling rate                            : 44.1 KHz
Compression mode                         : Lossy
Stream size                              : 20.3 MiB (6%)
Title                                    : Madly Madagascar 2012 DVDRip English
Language                                 : English
Default                                  : Yes
Forced                                   : No


Source:
credit to original movie ripper MATiNE (Thanks)

IMDB Info:

Valentines day is one of AlexΓÇÖs FAVORITE holidays! Back in the zoo, he was practically showered with valentines from numerous admirers, but now that heΓÇÖs in Africa, heΓÇÖs finding that valentines day is not what he was used toΓÇª can he still enjoy the day even though heΓÇÖs not getting the amount of attention heΓÇÖs used to having especially since his best friend is getting all the attention he himself is used to and more?

Genre: Animation | Adventure



Screen Shot:
 
http://www.shotpix.com/images/15029191759435470034.png 
http://www.shotpix.com/images/22384452632339071528.png 
http://www.shotpix.com/images/73773489682839862299.png 
http://www.shotpix.com/images/70392814045037746684.png